PathFileType	4	(X/Y/Z)	RBDS027\RBDS027runT45.trc
DataRate	CameraRate	NumFrames	NumMarkers	Units	OrigDataRate	OrigDataStartFrame	OrigNumFrames
150.000000	150.000000	4	33	mm	150.000000	562	4500
Frame#	Time	L.ASIS			L.Heel.Bottom			L.Heel.Lateral			L.Heel.Top			L.Iliac.Crest			L.MT1			L.MT5			L.PSIS			L.Shank.Bottom.Lateral			L.Shank.Bottom.Medial			L.Shank.Top.Lateral			L.Shank.Top.Medial			L.Thigh.Bottom.Lateral			L.Thigh.Bottom.Medial			L.Thigh.Top.Lateral			L.Thigh.Top.Medial			R.ASIS			R.ASY			R.Heel.Bottom			R.Heel.Lateral			R.Heel.Top			R.Iliac.Crest			R.MT1			R.MT5			R.PSIS			R.Shank.Bottom.Lateral			R.Shank.Bottom.Medial			R.Shank.Top.Lateral			R.Shank.Top.Medial			R.Thigh.Bottom.Lateral			R.Thigh.Bottom.Medial			R.Thigh.Top.Lateral			R.Thigh.Top.Medial			
		X1	Y1	Z1	X2	Y2	Z2	X3	Y3	Z3	X4	Y4	Z4	X5	Y5	Z5	X6	Y6	Z6	X7	Y7	Z7	X8	Y8	Z8	X9	Y9	Z9	X10	Y10	Z10	X11	Y11	Z11	X12	Y12	Z12	X13	Y13	Z13	X14	Y14	Z14	X15	Y15	Z15	X16	Y16	Z16	X17	Y17	Z17	X18	Y18	Z18	X19	Y19	Z19	X20	Y20	Z20	X21	Y21	Z21	X22	Y22	Z22	X23	Y23	Z23	X24	Y24	Z24	X25	Y25	Z25	X26	Y26	Z26	X27	Y27	Z27	X28	Y28	Z28	X29	Y29	Z29	X30	Y30	Z30	X31	Y31	Z31	X32	Y32	Z32	X33	Y33	Z33	

563	3.746666666666667	2164.014633471019	880.3124570116217	771.8542913698187	1454.135896884634	477.5157411595484	887.496752726185	1465.028809192483	447.8183357732345	839.7154575176635	1500.519938038849	461.4308156193861	882.6224368072694	2138.302200356234	970.3404736994745	760.6403964948593	1455.744772509385	259.3613872366191	913.0076117089624	1438.096322630635	300.8975218626016	810.497711092955	2018.186348826851	944.0867386508492	875.1502406184466	1562.782997207153	431.9915886254462	815.0582295711341	1555.258303542824	460.0053798765562	862.5155733147786	1629.064671519517	475.7704930658071	802.1987449399004	1624.048186763421	501.3320247964208	848.9504300060664	1907.231429561142	598.8675479350579	762.4743597228833	1876.841672024401	622.5997027117365	822.4663842359172	1951.125911963765	698.9629584977561	749.1375840091519	1924.4023090791	720.6928465147736	807.8885266943083	2185.558769527957	896.8231103356139	1025.353823516366	2532.192806042231	170.9499265037475	955.4986221058834	2413.155743514917	20.87440933551776	944.4885767683851	2434.870646190508	47.55196019326721	986.769472390542	2395.273976694154	63.23164415738761	952.5039157117033	2128.25582135709	980.4984424175053	1064.182677921989	2582.64486884189	157.2139675785041	894.6089022491502	2569.691333721171	121.8281076281925	1008.855604932569	2027.907485995377	935.7801528715077	972.3161146871417	2395.726594256549	170.6957823001622	1008.734990819391	2360.785174826985	168.5258131514343	970.8212123022853	2357.48503549953	240.6541157536239	1037.350583490064	2322.274107878716	234.7845414495014	997.3298853449489	2266.731032368046	545.9434237043521	1068.290208052415	2212.039662581114	517.8154625811756	1029.1710463825	2203.743630703607	633.1652061261999	1090.621923987647	2150.593768874253	605.9751957128492	1054.541317795688	
564	3.753333333333333	2164.243748929181	879.873062855906	770.865999825802	1462.885733811579	499.9438258197723	884.3391631101078	1471.47392973151	468.221076265072	837.6956447927419	1507.783949348588	480.1663005423646	880.175128735846	2133.804587632781	970.806871489534	760.0391898458772	1447.996954117947	283.8257960324328	916.699552103747	1433.516289929825	323.666158239629	812.8414537390057	2017.628074027702	941.4487034202295	875.5013504645083	1566.730563771585	444.6375422612892	813.9704669840048	1560.880110571696	474.5640622634455	860.4562187361615	1635.917049757227	483.5470647206936	800.213728114136	1632.331059416828	510.9069987015641	846.0547110583205	1915.28494465741	590.1535159320571	759.6568683977529	1883.461615997639	613.4497545421366	819.1791978667086	1956.488029785351	691.2874857645741	746.0691421731754	1928.17888583881	712.8252012207153	804.2058455467131	2184.957230032508	895.8307002756836	1025.112945352603	2530.965652301704	169.6988173753821	954.408957302452	2413.272734244384	19.11296058391968	941.9023855792988	2434.940468869584	45.26936128760839	984.377453107816	2395.09783953009	61.19913641367841	950.4945500655457	2128.324010967014	978.6321311946904	1064.129369207787	2581.348930814857	157.423883515895	893.098586618308	2568.973599651358	119.9676107105745	1006.827402133712	2027.276482489295	933.4254135226537	972.3684489571098	2394.28330325035	167.8389169304558	1007.272344039449	2359.540848792869	165.5553853717065	969.1646540622774	2355.157609045967	237.3103552142258	1036.189384136741	2320.291597950142	231.3764420449403	995.8275164833233	2262.402485724725	542.3459384706226	1068.447797536381	2207.736417876029	515.3046308728734	1028.310714831477	2200.374273030172	630.4337820060047	1090.600245838652	2147.252621596841	604.1332365838341	1053.756051720748	
565	3.76	2164.73682787996	878.6039471682735	770.067645382	1475.011785379232	521.3625495856776	881.1922432780295	1480.752760595098	487.677066494797	835.6966641260515	1518.078675680713	497.8206545335609	877.4584207264489	2129.54355800242	970.2203387382649	759.261156445807	1443.266951790392	308.4211172326438	920.6152953448708	1431.287575421567	346.2894815804657	815.5476503265093	2017.111587195732	937.7022015761725	875.3822039352565	1572.812760652349	456.4236209231785	812.7205213901289	1568.837225598256	488.1883588954688	858.1771617675639	1644.445471298621	490.3668032686592	797.9190425869609	1642.481942349955	519.4297610269473	842.8059727772804	1923.568821546667	580.8575391686315	756.8260741803248	1890.301880239888	603.5853821892966	815.8897796141669	1962.015363656039	683.0122953424101	743.0932672131397	1932.149995589549	704.2366274798085	800.6232813202041	2184.083185176356	894.6258608382832	1025.14325968651	2526.94327969154	166.1460665819707	953.5254761323919	2408.490444727765	17.48507937918548	938.9414824180537	2430.248710882435	42.8454902418304	981.7771870217692	2390.804356417745	59.47130999583295	947.9306384412429	2128.197983808015	976.6473888228541	1063.987066268846	2577.207722427711	154.2938869338461	892.1300948517202	2564.233409779562	115.4412291623005	1005.181106521745	2026.335271327072	930.3059535949226	972.0028408337251	2389.977315548962	164.4168796370629	1005.350132529499	2355.606413318422	162.4051981244401	966.8993280919963	2350.63618791241	233.8106145797343	1034.478017726427	2316.305728996281	228.1935662140309	993.6111527987097	2258.747005573755	539.4083827021404	1068.158579654108	2204.144356570744	513.0372952511945	1027.368582252586	2197.255836943687	627.9809548197626	1090.197710595822	2144.232260839717	602.2406516727806	1052.789468377118	
566	3.766666666666667	2165.536165559111	876.4722348943844	769.5469636816779	1490.215285475854	541.3845895852114	878.1880572023881	1492.662743657744	505.9413034969502	833.7925187518432	1531.137771849725	514.1266774218252	874.6152552711345	2125.830650323003	968.4420347490679	758.3247618198108	1441.719924896788	332.708194316592	924.5285297239498	1431.573456780232	368.5374793967919	818.4392734477885	2016.683628610731	932.8910407854651	874.7083510914204	1580.937371183029	467.2700024172971	811.3636164954384	1579.024410824915	500.7248815548205	855.7726010107735	1654.534039784136	496.2240768285054	795.3801728332089	1654.377678787733	526.8213487436676	839.3017205012179	1931.917231818675	571.208401593597	754.0902927203084	1897.249419073617	593.2059711830619	812.7325533029364	1967.606053014085	674.3451799200847	740.361862722922	1936.251766211408	695.1131768692816	797.3120580358781	2182.898262446621	893.168402664802	1025.471832035932	2520.337838824268	160.3691976608357	952.7273415297421	2399.10231107181	15.98900357281949	935.6880724273665	2421.084821109217	40.34834108797924	979.0058625063824	2382.671675042971	58.04084395888627	944.8356981311533	2127.754873178937	974.521114204876	1063.783380164908	2570.443233934066	147.8589195528558	891.6063581651082	2555.727188505324	108.4619141724893	1003.892117432186	2025.092896742542	926.4553670490794	971.1438039821411	2383.065032444928	160.3879573934266	1002.976098047839	2349.179884727843	159.0170255482736	964.0870958368545	2344.179382051942	230.0909016818835	1032.25591780345	2310.498370945496	225.1525319066073	990.7878737436777	2255.727773197702	536.9749539987666	1067.438667768126	2201.229565585405	510.8667398093531	1026.328912987041	2194.345611898958	625.6505347596215	1089.413852935747	2141.481206705918	600.152498449266	1051.619931312116	
